<svg xmlns="http://www.w3.org/2000/svg" width="960" height="400" viewBox="0 0 960 400" role="img"><title>温室观测与数据记录</title><desc>原创通用温室数据示意，不是hexafarms产品界面，不表示设备能自动保证增产。</desc><rect width="960" height="400" fill="#f3f8fb"/><path d="M0 315Q230 275 460 325T960 296V400H0Z" fill="#e1efe7"/><g font-family="Microsoft YaHei, Noto Sans CJK SC, sans-serif"><text x="48" y="65" fill="#254d43" font-size="30" font-weight="700">把温室观察连起来，再作判断</text><g stroke="#6e9d91" stroke-width="4" fill="#fff" fill-opacity=".8"><path d="m62 181 173-67 173 67v135H62Zm0 0h346m-173-67v202m-90-169v169m183-169v169"/></g><g fill="#4c9872"><path d="M98 287h64v29H98Zm109 0h64v29h-64Zm109 0h64v29h-64Z"/><path d="M130 287v-40m0 13q-31-39-36-6m36 1q28-34 33-7M239 287v-40m0 13q-31-39-36-6m36 1q28-34 33-7M348 287v-40m0 13q-31-39-36-6m36 1q28-34 33-7" stroke="#4c9872" stroke-width="3"/></g><g fill="#e2f0f5" stroke="#74aabd" stroke-width="3"><circle cx="177" cy="214" r="13"/><circle cx="297" cy="214" r="13"/><path d="M435 215h79m-12-9 12 9-12 9" fill="none"/><rect x="545" y="117" width="367" height="204" rx="18" fill="#fff"/></g><g fill="#3d6572" font-size="22"><text x="576" y="161" font-weight="700">观测 → 记录 → 判断</text><text x="576" y="210">气候 · 灌溉 · 基质</text><text x="576" y="255">排水 · 光照</text><text x="576" y="294" font-size="18">效果仍要按作物和设施验证</text></g><text x="48" y="370" fill="#547064" font-size="18">秋秋农场日报原创示意 · 不是企业产品界面或增产证明</text></g></svg>